# xmcd CD database file
#
# Track frame offsets:
#	151
#	20102
#	45510
#	63645
#	84152
#	102908
#	124927
#	142592
#	155877
#	170405
#	190062
#	209612
#	231380
#	252722
#	274171
#	285028
#	304363
#
# Disc length: 4266 seconds
#
# Revision: 0
# Processed by: cddbd v1.4PL0 Copyright (c) Steve Scherf et al.
# Submitted via: Feurio! 1.65 - http://www.feurio.com
#
DISCID=f810a811
DTITLE=Lou Rawls - Lou Rawls Greatest Love Song
DYEAR=1900
DGENRE=Blues
TTITLE0=Spring Again
TTITLE1=Early Morning Love
TTITLE2=Lady Love
TTITLE3=If I Coulda, Woulda, Shoulda
TTITLE4=Willow Weep For Me
TTITLE5=You Will Kiss Me One More Time
TTITLE6=Wind Beneath My Wings
TTITLE7=When The Night Comes
TTITLE8=Midnight Sunshine
TTITLE9=We'll Be Together Again
TTITLE10=In The Middle Of The Night
TTITLE11=Close Company
TTITLE12=Forever I Do (Wedding Song)
TTITLE13=The Lady Of My Life
TTITLE14=The Way You Look Tonight
TTITLE15=Learn To Love Again
TTITLE16=It Never Entered My Mind
EXTD=
EXTT0=
EXTT1=
EXTT2=
EXTT3=
EXTT4=
EXTT5=
EXTT6=
EXTT7=
EXTT8=
EXTT9=
EXTT10=
EXTT11=
EXTT12=
EXTT13=
EXTT14=
EXTT15=
EXTT16=
PLAYORDER=
